# xmcd
#
# Track frame offsets:
#	150
#	12061
#	27313
#	45504
#	61910
#	74945
#	88162
#	101215
#	116939
#	132435
#	155217
#	171377
#	177667
#	190334
#	207202
#	223525
#	237274
#	251711
#	263743
#
# Disc length: 3871
#
# Revision: 1
# Processed by: cddbd v1.5.1PL0 Copyright (c) Steve Scherf et al.
# Submitted via: dBpowerAMP V4.0
# Normalized: r0:TRMNUM
#
DISCID=2a0f1d13
DTITLE=Savannah - For You
DYEAR=1900
DGENRE=Country
TTITLE0=baby's goota hold on me
TTITLE1=i'll never make it without you
TTITLE2=no place to go
TTITLE3=for you
TTITLE4=beer joint feer
TTITLE5=lonely woman
TTITLE6=antoinnette
TTITLE7=the point of no return
TTITLE8=she
TTITLE9=eldorado
TTITLE10=i want to be with you
TTITLE11=shorty
TTITLE12=close friends
TTITLE13=workin' man blues/always late
TTITLE14=after the best
TTITLE15=there goes my heart
TTITLE16=met jou(dutch)
TTITLE17=teach your children
TTITLE18=lyin' eyes/take it easy
EXTD=
EXTT0=
EXTT1=
EXTT2=
EXTT3=
EXTT4=
EXTT5=
EXTT6=
EXTT7=
EXTT8=
EXTT9=
EXTT10=
EXTT11=
EXTT12=
EXTT13=
EXTT14=
EXTT15=
EXTT16=
EXTT17=
EXTT18=
PLAYORDER=
